<svg xmlns="http://www.w3.org/2000/svg" xmlns:xlink="http://www.w3.org/1999/xlink" width="13" height="17" viewBox="0 0 13 17"><defs><path id="n2waa" d="M419.059 3068.156c0-2.296.505-4.157 3.44-4.157 2.936 0 3.442 1.861 3.442 4.157 0 2.296-1.541 4.157-3.441 4.157s-3.441-1.86-3.441-4.157zM416 3078.661c-.001-.04 0-.14 0 0zm12.999.11c0-.267.002-.04 0 0zm0 0v.31s-.957 1.919-6.5 1.919c-5.542 0-6.498-1.92-6.498-1.92v-.419c0 .036.003.02.009-.298.073-3.894.63-5.017 4.605-5.73 0 0 .566.716 1.885.716 1.318 0 1.884-.717 1.884-.717 4.019.722 4.544 1.861 4.608 5.861.004.256.006.3.007.277z"/></defs><g><g transform="translate(-416 -3064)"><use fill="#e74f5d" xlink:href="#n2waa"/></g></g></svg>