<svg xmlns="http://www.w3.org/2000/svg" xmlns:xlink="http://www.w3.org/1999/xlink" width="24" height="24" viewBox="0 0 24 24"><defs><path id="bqx2a" d="M850.55 3929.723v-10.791h-16.563v20.134h7.619c.547 0 .994.435.994.966 0 .532-.447.967-.994.967h-8.612c-.547 0-.994-.435-.994-.967v-22.067c0-.531.447-.966.994-.966h18.55c.546 0 .993.435.993.966v11.758c0 .532-.447.967-.994.967-.546 0-.993-.435-.993-.967zm5.184 3.738l-6.129 6.635c-.165.194-.43.307-.695.323h-.033a.991.991 0 0 1-.696-.274l-3.478-3.254a.949.949 0 0 1-.033-1.368 1.015 1.015 0 0 1 1.408-.033l2.733 2.561 5.449-5.895a1.016 1.016 0 0 1 1.407-.08c.414.353.448.966.067 1.385zm-7.834-9.858c0 .531-.448.966-.994.966h-8.944c-.546 0-.993-.435-.993-.966 0-.531.447-.967.993-.967h8.944c.546 0 .994.436.994.967zm-.994 6.282h-8.944c-.546 0-.993-.435-.993-.967 0-.531.447-.967.993-.967h8.944c.546 0 .994.436.994.967 0 .532-.448.967-.994.967zm-6.294 3.221c.547 0 .994.435.994.967 0 .53-.447.966-.994.966h-2.65c-.546 0-.993-.435-.993-.966 0-.532.447-.967.993-.967z"/></defs><g><g transform="translate(-832 -3917)"><use fill="#7a97ff" xlink:href="#bqx2a"/></g></g></svg>