<svg xmlns="http://www.w3.org/2000/svg" xmlns:xlink="http://www.w3.org/1999/xlink" width="14" height="19" viewBox="0 0 14 19"><defs><path id="rau9a" d="M464 6745.88c0 4.709-6.264 11.621-6.531 11.913a.638.638 0 0 1-.938 0c-.267-.292-6.531-7.204-6.531-11.913 0-3.794 3.14-6.88 7-6.88s7 3.086 7 6.88zm-3.478 0c0-1.909-1.58-3.462-3.522-3.462-1.942 0-3.522 1.553-3.522 3.462 0 1.91 1.58 3.462 3.522 3.462 1.942 0 3.522-1.553 3.522-3.462z"/></defs><g><g transform="translate(-450 -6739)"><use fill="#e22c3d" xlink:href="#rau9a"/></g></g></svg>