<svg xmlns="http://www.w3.org/2000/svg" xmlns:xlink="http://www.w3.org/1999/xlink" width="16" height="16" viewBox="0 0 16 16"><defs><path id="x7bua" d="M720.639 3077.66l-2.47-2.478c-.493-.49-1.307-.476-1.816.035l-1.245 1.247-.245-.136c-.786-.437-1.862-1.036-2.994-2.171-1.135-1.139-1.732-2.219-2.17-3.008l-.133-.24.835-.836.41-.413c.51-.511.525-1.329.034-1.82l-2.47-2.478c-.491-.493-1.306-.477-1.816.033l-.696.703.019.02a4.024 4.024 0 0 0-.574 1.014c-.134.353-.217.69-.255 1.029-.326 2.711.91 5.19 4.263 8.552 4.635 4.648 8.37 4.298 8.532 4.28a4.152 4.152 0 0 0 2.037-.832l.016.014.705-.693c.509-.512.523-1.328.033-1.822z"/></defs><g><g transform="translate(-705 -3065)"><use fill="#e22c3d" xlink:href="#x7bua"/></g></g></svg>