<svg xmlns="http://www.w3.org/2000/svg" xmlns:xlink="http://www.w3.org/1999/xlink" style="display:none"><defs><path id="a" d="M1005 3075.1l2.227-1.971 6.364 5.517a1.284 1.284 0 0 1-.886.353h-15.41a1.29 1.29 0 0 1-.889-.353l6.367-5.517zm8.593-8.748L1005 3073.8l-8.591-7.446a1.28 1.28 0 0 1 .885-.355h15.411c.346 0 .657.134.888.353zm-17.593.789l6.214 5.461-6.214 5.338zm11.786 5.461l6.214-5.465v10.803z"/><path id="a" d="M464 6745.88c0 4.709-6.264 11.621-6.531 11.913a.638.638 0 0 1-.938 0c-.267-.292-6.531-7.204-6.531-11.913 0-3.794 3.14-6.88 7-6.88s7 3.086 7 6.88zm-3.478 0c0-1.909-1.58-3.462-3.522-3.462-1.942 0-3.522 1.553-3.522 3.462 0 1.91 1.58 3.462 3.522 3.462 1.942 0 3.522-1.553 3.522-3.462z"/><path id="a" d="M850.55 3929.723v-10.791h-16.563v20.134h7.619c.547 0 .994.435.994.966 0 .532-.447.967-.994.967h-8.612c-.547 0-.994-.435-.994-.967v-22.067c0-.531.447-.966.994-.966h18.55c.546 0 .993.435.993.966v11.758c0 .532-.447.967-.994.967-.546 0-.993-.435-.993-.967zm5.184 3.738l-6.129 6.635a1 1 0 0 1-.695.323h-.033a.991.991 0 0 1-.696-.274l-3.478-3.254a.949.949 0 0 1-.033-1.368 1.015 1.015 0 0 1 1.408-.033l2.733 2.561 5.449-5.895a1.016 1.016 0 0 1 1.407-.08c.414.353.448.966.067 1.385zm-7.834-9.858c0 .531-.448.966-.994.966h-8.944c-.546 0-.993-.435-.993-.966 0-.531.447-.967.993-.967h8.944c.546 0 .994.436.994.967zm-.994 6.282h-8.944c-.546 0-.993-.435-.993-.967 0-.531.447-.967.993-.967h8.944c.546 0 .994.436.994.967 0 .532-.448.967-.994.967zm-6.294 3.221c.547 0 .994.435.994.967 0 .53-.447.966-.994.966h-2.65c-.546 0-.993-.435-.993-.966 0-.532.447-.967.993-.967z"/><path id="a" d="M720.639 3077.66l-2.47-2.478c-.493-.49-1.307-.476-1.816.035l-1.245 1.247-.245-.136c-.786-.437-1.862-1.036-2.994-2.171-1.135-1.139-1.732-2.219-2.17-3.008l-.133-.24.835-.836.41-.413c.51-.511.525-1.329.034-1.82l-2.47-2.478c-.491-.493-1.306-.477-1.816.033l-.696.703.019.02a4.024 4.024 0 0 0-.574 1.014c-.134.353-.217.69-.255 1.029-.326 2.711.91 5.19 4.263 8.552 4.635 4.648 8.37 4.298 8.532 4.28a4.152 4.152 0 0 0 2.037-.832l.016.014.705-.693c.509-.512.523-1.328.033-1.822z"/><path id="a" d="M466 6872.5a8.5 8.5 0 1 1-17-.002 8.5 8.5 0 0 1 17 .001zm-4.238 1.028a.588.588 0 0 0-.588-.588h-3.086v-5.414a.588.588 0 0 0-1.176 0v6.002c0 .324.263.588.588.588.012 0 .023-.003.035-.004.012 0 .024.004.036.004h3.603a.588.588 0 0 0 .588-.588z"/><path id="a" d="M419.059 3068.156c0-2.296.505-4.157 3.44-4.157 2.936 0 3.442 1.861 3.442 4.157 0 2.296-1.541 4.157-3.441 4.157s-3.441-1.86-3.441-4.157zM416 3078.661c-.001-.04 0-.14 0 0zm12.999.11c0-.267.002-.04 0 0zm0 0v.31s-.957 1.919-6.5 1.919c-5.542 0-6.498-1.92-6.498-1.92v-.419c0 .036.003.02.009-.298.073-3.894.63-5.017 4.605-5.73 0 0 .566.716 1.885.716 1.318 0 1.884-.717 1.884-.717 4.019.722 4.544 1.861 4.608 5.861.004.256.006.3.007.277z"/></defs><symbol id="icon-email" viewBox="0 0 18 13"><use fill="#e22c3d" xlink:href="#a" transform="translate(-996 -3066)"/></symbol><symbol id="icon-map" viewBox="0 0 14 19"><use fill="#e22c3d" xlink:href="#a" transform="translate(-450 -6739)"/></symbol><symbol id="icon-message" viewBox="0 0 24 24"><use fill="#7a97ff" xlink:href="#a" transform="translate(-832 -3917)"/></symbol><symbol id="icon-phone" viewBox="0 0 16 16"><use fill="#e22c3d" xlink:href="#a" transform="translate(-705 -3065)"/></symbol><symbol id="icon-time" viewBox="0 0 17 17"><use fill="#e22c3d" xlink:href="#a" transform="translate(-449 -6864)"/></symbol><symbol id="icon-user" viewBox="0 0 13 17"><use fill="#e74f5d" xlink:href="#a" transform="translate(-416 -3064)"/></symbol><symbol id="temp-icon-left-arrow" viewBox="0 0 31.494 31.494"><path d="M10.273 5.01a1.117 1.117 0 0 1 1.587 1.57l-8.047 8.047h26.554c.62 0 1.127.492 1.127 1.11 0 .62-.508 1.128-1.127 1.128H3.813l8.047 8.032c.43.444.43 1.16 0 1.587a1.112 1.112 0 0 1-1.587 0L.32 16.532a1.12 1.12 0 0 1 0-1.57l9.953-9.953z" fill="#1E201D"/></symbol><symbol id="temp-icon-right-arrow" viewBox="0 0 31.49 31.49"><path d="M21.205 5.007a1.117 1.117 0 0 0-1.587 1.57l8.047 8.048H1.11c-.618 0-1.11.493-1.11 1.112 0 .62.492 1.127 1.11 1.127h26.555l-8.047 8.032c-.43.444-.43 1.16 0 1.587.444.444 1.16.444 1.587 0l9.952-9.952a1.092 1.092 0 0 0 0-1.57l-9.952-9.95z" fill="#1E201D"/></symbol></svg>